# xmcd
#
# Track frame offsets: 
#        150
#        18208
#        39293
#        59502
#        80624
#        96863
#        115442
#        134963
#        150539
#        169078
#        190090
#        211464
#        229381
#        245316
#        259837
#        278503
#        296274
#        314977
#        333447
#
# Disc length: 4715 seconds
#
# Revision: 0
# Processed by: cddbd v1.5.2PL0 Copyright (c) Steve Scherf et al.
# Submitted via: ExactAudioCopy v1.0b3
#
DISCID=19126913
DTITLE=Legende - Trilogija [Disk 1]
DYEAR=2012
DGENRE=Folk
TTITLE0=Ne verujes mojim recima
TTITLE1=Secanje
TTITLE2=Zaboravi
TTITLE3=Moja ponocna dugo
TTITLE4=Najlepsa greska (Duet sa Zeljkom Samardzicem)
TTITLE5=Dugo
TTITLE6=Reci dal' je to ljubav
TTITLE7=Tocak zivota (Duet sa Borom Djordjevicem)
TTITLE8=Tragovi
TTITLE9=Prvi sneg
TTITLE10=Epitaf
TTITLE11=Kako ja umem da sanjam
TTITLE12=Sjaj od plamena
TTITLE13=Molitva
TTITLE14=Talas i dno
TTITLE15=Ipak sve prodje
TTITLE16=Jos si sama
TTITLE17=Strah me
TTITLE18=Zasto ne volim prolece
EXTD=
EXTT0=
EXTT1=
EXTT2=
EXTT3=
EXTT4=
EXTT5=
EXTT6=
EXTT7=
EXTT8=
EXTT9=
EXTT10=
EXTT11=
EXTT12=
EXTT13=
EXTT14=
EXTT15=
EXTT16=
EXTT17=
EXTT18=
PLAYORDER=
